<?xml version="1.0" encoding="UTF-8"?>
<svg xmlns="http://www.w3.org/2000/svg" xmlns:xlink="http://www.w3.org/1999/xlink" width="43pt" height="43pt" viewBox="0 0 43 43" version="1.1">
<g id="surface1">
<path style=" stroke:none;fill-rule:nonzero;fill:rgb(0%,0%,0%);fill-opacity:1;" d="M 35.792969 10.441406 L 33.996094 3.867188 L 27.898438 5.53125 L 25.359375 0.402344 L 5.09375 10.441406 L 0 10.441406 L 0 42.617188 L 40.253906 42.617188 L 40.253906 33.945312 L 43.023438 33.945312 L 43.023438 18.96875 L 40.253906 18.96875 L 40.253906 10.441406 Z M 31.882812 7.570312 L 32.664062 10.441406 L 21.363281 10.441406 L 26.296875 9.097656 L 29.265625 8.285156 Z M 37.238281 39.601562 L 3.015625 39.601562 L 3.015625 13.460938 L 37.238281 13.460938 L 37.238281 18.96875 L 21.847656 18.96875 L 21.847656 33.945312 L 37.238281 33.945312 Z M 40.003906 30.929688 L 24.863281 30.929688 L 24.863281 21.984375 L 40.003906 21.984375 Z M 23.996094 4.445312 L 24.933594 6.339844 L 14.328125 9.234375 Z M 23.996094 4.445312 "/>
<path style=" stroke:none;fill-rule:nonzero;fill:rgb(0%,0%,0%);fill-opacity:1;" d="M 27.253906 25.054688 L 27.253906 28.007812 L 30.207031 28.007812 L 30.207031 25.054688 Z M 27.253906 25.054688 "/>
</g>
</svg>
