<?xml version="1.0" encoding="iso-8859-1"?>
<!-- Generator: Adobe Illustrator 19.0.0, SVG Export Plug-In . SVG Version: 6.00 Build 0)  -->
<svg version="1.1" id="Layer_1" xmlns="http://www.w3.org/2000/svg" xmlns:xlink="http://www.w3.org/1999/xlink" x="0px" y="0px"
	 viewBox="0 0 504.048 504.048" style="enable-background:new 0 0 504.048 504.048;" xml:space="preserve">
<g>
	<g>
		<path d="M140.028,384H63.444c-12.912,0-23.416-10.424-23.416-23.236V88c0-2.208-1.792-4-4-4s-4,1.792-4,4v272.764
			C32.028,377.988,46.12,392,63.444,392h76.584c2.208,0,4-1.792,4-4S142.236,384,140.028,384z"/>
	</g>
</g>
<g>
	<g>
		<path d="M452.028,260c-2.208,0-4,1.792-4,4v96.764c0,12.596-11.236,23.236-24.532,23.236h-59.468c-2.208,0-4,1.792-4,4
			s1.792,4,4,4h59.468c17.632,0,32.532-14.304,32.532-31.236V264C456.028,261.792,454.236,260,452.028,260z"/>
	</g>
</g>
<g>
	<g>
		<path d="M423.496,60H64.028c-2.208,0-4,1.792-4,4s1.792,4,4,4h359.468c13.296,0,24.532,10.628,24.532,23.212V184
			c0,2.208,1.792,4,4,4s4-1.792,4-4V91.212C456.028,74.292,441.128,60,423.496,60z"/>
	</g>
</g>
<g>
	<g>
		<path d="M423.496,44H68.028c-2.208,0-4,1.792-4,4s1.792,4,4,4h355.468c13.068,0,24.532,11.008,24.532,23.556V164
			c0,2.208,1.792,4,4,4s4-1.792,4-4V75.556C456.028,58.452,441.128,44,423.496,44z"/>
	</g>
</g>
<g>
	<g>
		<path d="M63.444,59.784c-12.92,0-23.428-10.512-23.428-23.432c0-2.208-1.792-4-4-4c-2.208,0-4,1.792-4,4
			c0,17.332,14.096,31.432,31.428,31.432c2.208,0,4-1.792,4-4S65.652,59.784,63.444,59.784z"/>
	</g>
</g>
<g>
	<g>
		<path d="M63.444,100.068c-12.92,0-23.428-10.508-23.428-23.428c0-2.208-1.792-4-4-4c-2.208,0-4,1.792-4,4
			c0,17.328,14.096,31.428,31.428,31.428c2.208,0,4-1.792,4-4S65.652,100.068,63.444,100.068z"/>
	</g>
</g>
<g>
	<g>
		<path d="M63.444,343.88c-12.92,0-23.428-10.508-23.428-23.428c0-2.208-1.792-4-4-4c-2.208,0-4,1.792-4,4
			c0,17.328,14.096,31.428,31.428,31.428c2.208,0,4-1.792,4-4S65.652,343.88,63.444,343.88z"/>
	</g>
</g>
<g>
	<g>
		<path d="M389.208,0H63.444C46.12,0,32.028,14.08,32.028,31.388V304c0,2.208,1.792,4,4,4s4-1.792,4-4V31.388
			C40.028,18.492,50.532,8,63.444,8h325.764c12.796,0,22.82,10.272,22.82,23.388V44c0,2.208,1.792,4,4,4s4-1.792,4-4V31.388
			C420.028,13.788,406.492,0,389.208,0z"/>
	</g>
</g>
<g>
	<g>
		<path d="M421.372,43.512C419.428,28.084,405.3,16,389.208,16H68.028c-2.208,0-4,1.792-4,4s1.792,4,4,4h321.18
			c11.932,0,22.804,9.2,24.224,20.512c0.256,2.02,1.976,3.5,3.964,3.5c0.168,0,0.336-0.012,0.508-0.032
			C420.096,47.704,421.648,45.704,421.372,43.512z"/>
	</g>
</g>
<g>
	<g>
		<path d="M454.312,180H325.748c-9.772,0-17.72,7.952-17.72,17.724v52.552c0,9.772,7.948,17.724,17.72,17.724h128.56
			c9.772,0,17.72-7.952,17.724-17.72v-52.556C472.032,187.952,464.08,180,454.312,180z M464.032,250.276
			c0,5.364-4.36,9.724-9.72,9.724H325.748c-5.36,0-9.72-4.36-9.72-9.72v-52.556c0-5.364,4.36-9.724,9.72-9.724h128.564
			c5.36,0,9.72,4.364,9.72,9.724V250.276z"/>
	</g>
</g>
<g>
	<g>
		<path d="M352.192,196.052c-15.44,0-28.004,12.56-28.004,28c0,15.444,12.564,28.008,28.004,28.008s28.004-12.564,28.004-28.008
			C380.196,208.612,367.632,196.052,352.192,196.052z M352.192,244.06c-11.028,0-20.004-8.976-20.004-20.008
			c0-11.028,8.976-20,20.004-20s20.004,8.972,20.004,20C372.196,235.084,363.22,244.06,352.192,244.06z"/>
	</g>
</g>
<g>
	<g>
		<path d="M360.06,220.056c-2.208,0-4,1.792-4,4c0,2.192-1.784,3.976-3.976,3.976s-3.976-1.784-3.976-3.976
			c0-2.192,1.784-3.972,3.976-3.972c2.208,0,4-1.792,4-4s-1.792-4-4-4c-6.604,0-11.976,5.372-11.976,11.972
			c0,6.604,5.372,11.976,11.976,11.976s11.976-5.372,11.976-11.976C364.06,221.848,362.268,220.056,360.06,220.056z"/>
	</g>
</g>
<g>
	<g>
		<path d="M148.028,344h-84c-2.208,0-4,1.792-4,4s1.792,4,4,4h84c2.208,0,4-1.792,4-4S150.236,344,148.028,344z"/>
	</g>
</g>
<g>
	<g>
		<path d="M408.028,260c-2.208,0-4,1.792-4,4v77.032c0,1.5-1.572,2.968-3.176,2.968h-40.824c-2.208,0-4,1.792-4,4s1.792,4,4,4
			h40.824c6.06,0,11.176-5.02,11.176-10.968V264C412.028,261.792,410.236,260,408.028,260z"/>
	</g>
</g>
<g>
	<g>
		<path d="M401.184,100H64.028c-2.208,0-4,1.792-4,4s1.792,4,4,4h337.156c1.54,0,2.844,1.344,2.844,2.932V164c0,2.208,1.792,4,4,4
			s4-1.792,4-4v-53.068C412.028,104.904,407.164,100,401.184,100z"/>
	</g>
</g>
<g>
	<g>
		<path d="M66.084,44.12c-5.488,0-9.952-4.468-9.952-9.96c0-5.488,4.464-9.956,9.952-9.956c2.208,0,4-1.792,4-4s-1.792-4-4-4
			c-9.896,0-17.952,8.052-17.952,17.956c0,9.904,8.052,17.96,17.952,17.96c2.208,0,4-1.792,4-4S68.292,44.12,66.084,44.12z"/>
	</g>
</g>
<g>
	<g>
		<path d="M303.884,376H200.132c-6.58,0-11.932,5.384-11.932,12c0,6.616,5.352,12,11.932,12h103.756c6.58,0,11.928-5.384,11.928-12
			C315.816,381.384,310.464,376,303.884,376z M303.884,392H200.132c-2.168,0-3.932-1.796-3.932-4c0-2.204,1.764-4,3.932-4h103.752
			c2.168,0,3.932,1.796,3.932,4C307.816,390.204,306.052,392,303.884,392z"/>
	</g>
</g>
<g>
	<g>
		<path d="M252.096,272.352c-63.876,0-115.844,51.968-115.844,115.844c0,63.88,51.968,115.852,115.844,115.852
			S367.94,452.08,367.94,388.196C367.94,324.32,315.972,272.352,252.096,272.352z M252.096,496.048
			c-59.464,0-107.844-48.384-107.844-107.852c0-59.464,48.38-107.844,107.844-107.844c59.464,0,107.844,48.38,107.844,107.844
			C359.94,447.664,311.56,496.048,252.096,496.048z"/>
	</g>
</g>
<g>
	<g>
		<path d="M330.06,325.36c-1.396-1.72-3.916-1.984-5.628-0.592c-1.716,1.392-1.98,3.912-0.592,5.628
			c13.184,16.284,20.444,36.816,20.444,57.812c0,50.696-41.248,91.94-91.944,91.94s-91.944-41.244-91.944-91.94
			c0-50.696,41.244-91.94,91.944-91.94c18.044,0,35.504,5.216,50.5,15.092c1.844,1.216,4.324,0.708,5.54-1.14
			c1.216-1.844,0.704-4.324-1.14-5.54c-16.304-10.74-35.288-16.416-54.9-16.416c-55.108,0-99.944,44.832-99.944,99.94
			c0,55.108,44.836,99.94,99.944,99.94c55.108,0,99.944-44.836,99.948-99.94C352.288,365.38,344.392,343.064,330.06,325.36z"/>
	</g>
</g>
<g>
</g>
<g>
</g>
<g>
</g>
<g>
</g>
<g>
</g>
<g>
</g>
<g>
</g>
<g>
</g>
<g>
</g>
<g>
</g>
<g>
</g>
<g>
</g>
<g>
</g>
<g>
</g>
<g>
</g>
</svg>
